<?xml version="1.0" encoding="utf-8"?>
<!-- Generator: Adobe Illustrator 26.0.3, SVG Export Plug-In . SVG Version: 6.00 Build 0)  -->
<svg version="1.1" xmlns="http://www.w3.org/2000/svg" xmlns:xlink="http://www.w3.org/1999/xlink" x="0px" y="0px"
	 viewBox="0 0 4800 3200" style="enable-background:new 0 0 4800 3200;" xml:space="preserve">
<style type="text/css">
	.st0{fill:#E7E7E7;}
	.st1{fill:#ACAEB0;}
	.st2{fill:#6C6E70;}
	.st3{fill:#CED8DB;}
	.st4{fill:#F6DA55;}
	.st5{fill:#C4951A;}
	.st6{fill:#F4F4F3;}
	.st7{fill:#E8E4E2;}
	.st8{fill:#FFFFFE;}
	.st9{fill:#6B9ED5;}
	.st10{fill:#86BAE6;}
	.st11{fill:#E41E22;}
	.st12{fill:#9A6155;}
	.st13{fill:#B7B4A9;}
	.st14{fill:none;stroke:#6C6E70;stroke-width:22;stroke-linecap:round;stroke-miterlimit:10;}
	.st15{fill:none;stroke:#6C6E70;stroke-width:22;stroke-linecap:round;stroke-linejoin:round;stroke-miterlimit:10;}
	.st16{fill:#DDD9C9;}
	.st17{fill:none;stroke:#DDD9C9;stroke-width:15;stroke-miterlimit:10;}
	.st18{clip-path:url(#SVGID_00000134939294612512927470000012748752882316378774_);}
	.st19{opacity:0.29;}
	.st20{fill:none;stroke:#212123;stroke-width:18;stroke-linecap:round;stroke-linejoin:round;stroke-miterlimit:10;}
	.st21{fill:none;stroke:#6C6E70;stroke-width:23;stroke-linejoin:round;stroke-miterlimit:10;}
	.st22{fill:#6B6E6F;}
	.st23{fill:none;stroke:#6B9ED5;stroke-width:6;stroke-miterlimit:10;}
	.st24{fill:none;stroke:#6B9ED5;stroke-width:9;stroke-miterlimit:10;}
</style>
<g id="Layer_1">
	<polygon class="st0" points="-0.25,3200 4799.75,3200 4800,2283 1741,992 -0.25,2003.65 	"/>
</g>
<g id="Layer_7">
	<g>
		<polygon class="st1" points="1763.23,2391.84 2372.5,2027.66 3351,2436.19 2719.39,2812.91 		"/>
		<polygon class="st2" points="3351,2436.19 3351,2370.95 2715.87,2746.77 2719.39,2812.91 		"/>
		<polygon class="st3" points="2715.87,2746.77 1763.23,2327.61 2377.13,1973.32 3351,2370.95 2715.87,2746.77 1763.23,2327.61 
			1763.23,2391.84 2719.39,2812.91 		"/>
		<polygon class="st1" points="1763.23,2327.61 1763.23,2391.84 2719.39,2812.91 2715.87,2746.77 		"/>
	</g>
	<g>
		<polygon class="st4" points="1945.04,2354.91 2047.82,2292.68 2042.53,2077.16 1980.2,2017.16 1944.82,2123.68 		"/>
		<polygon class="st4" points="1849.82,2090.68 1944.82,2123.68 1945.04,2354.91 1851.82,2315.68 		"/>
		<polygon class="st5" points="1849.82,2090.68 1892.82,1998.68 1980.2,2017.16 1944.82,2123.68 		"/>
		<polygon class="st4" points="1971.56,2043.16 1884.18,2017.16 1892.82,1998.68 1980.2,2017.16 		"/>
		<polygon class="st5" points="1944.82,2123.68 2042.53,2077.16 2047.82,2292.68 1945.04,2354.91 		"/>
		<polygon class="st6" points="1849.82,2186.03 1944.82,2222.79 2044.79,2169.22 2046.52,2239.81 1944.82,2296.61 1851.34,2261.74 
					"/>
		<polygon class="st7" points="1944.82,2222.79 1944.82,2296.61 2046.52,2239.81 2044.79,2169.22 		"/>
	</g>
	<g>
		<polygon class="st4" points="2115.72,2433.07 2218.5,2370.83 2213.21,2155.32 2150.87,2095.32 2115.5,2201.83 		"/>
		<polygon class="st4" points="2020.5,2168.83 2115.5,2201.83 2115.72,2433.07 2022.5,2393.83 		"/>
		<polygon class="st5" points="2020.5,2168.83 2063.5,2076.83 2150.87,2095.32 2115.5,2201.83 		"/>
		<polygon class="st4" points="2142.24,2121.32 2054.86,2095.32 2063.5,2076.83 2150.87,2095.32 		"/>
		<polygon class="st5" points="2115.5,2201.83 2213.21,2155.32 2218.5,2370.83 2115.72,2433.07 		"/>
		<polygon class="st6" points="2020.5,2264.19 2115.5,2300.95 2215.47,2247.38 2217.2,2317.97 2115.5,2374.77 2022.02,2339.9 		"/>
		<polygon class="st7" points="2115.5,2300.95 2115.5,2374.77 2217.2,2317.97 2215.47,2247.38 		"/>
	</g>
	<g>
		<path class="st8" d="M2412.83,2287.36h-185.49l-22.82,26.18c-3.87,6.47-5.91,13.87-5.91,21.42l0,109.99
			c0,15.96,8.82,30.66,22.99,38.01c35.7,18.54,109.21,43.84,193.68-0.58c14.01-7.37,22.78-21.9,22.83-37.72l0.32-108.8
			c0.02-8.11-2.32-16.05-6.73-22.86L2412.83,2287.36z"/>
		<path class="st9" d="M2210.03,2235.69v42.76c0,3.68,1.95,7.04,5.03,8.66c22.17,11.66,114.13,53.32,206.96-1.72
			c2.86-1.69,4.62-4.93,4.62-8.43v-41.26H2210.03z"/>
		<ellipse class="st10" cx="2318.53" cy="2241.81" rx="108.5" ry="28.96"/>
		<path class="st9" d="M2198.61,2355.73c0,0,125.77,58.04,239.91,0l-0.37,71.77c0,0-113.91,70.25-239.54,0V2355.73z"/>
		<path class="st4" d="M2320.05,2427.69l0.08-0.01c2.43-0.4,4.96,0.01,6.98,1.19c3.94,2.29,13.04,5.4,18.33,5.06
			c10.51-0.67,14.79-9.56,15.46-18.13c0.79-10.15-9.08-18.58-21.37-18.58c-2.5,0-4.89,0.35-7.12,0.99l0,0l0,0
			c-3.24,0.93-6.11,2.47-8.43,4.46c-2.09,1.8-4.69,3.17-7.63,3.78c-0.11,0.02-0.21,0.04-0.32,0.06c-3.33,0.66-6.88,0.36-9.97-0.86
			c-3.3-1.31-7.07-1.95-11.06-1.71c-10.62,0.66-19.15,7.8-19.7,16.46c-0.5,7.95,5.52,14.8,14.1,17.33c0,0,14.89,3.64,25.02-7.13
			C2315.84,2429.12,2317.8,2428.06,2320.05,2427.69z"/>
	</g>
	<g>
		<path class="st8" d="M2602.83,2368.36h-185.49l-22.82,26.18c-3.87,6.47-5.91,13.87-5.91,21.42l0,109.99
			c0,15.96,8.82,30.66,22.99,38.01c35.7,18.54,109.21,43.84,193.68-0.58c14.01-7.37,22.78-21.9,22.83-37.72l0.32-108.8
			c0.02-8.11-2.32-16.05-6.73-22.86L2602.83,2368.36z"/>
		<path class="st9" d="M2400.03,2316.69v42.76c0,3.68,1.95,7.04,5.03,8.66c22.17,11.66,114.13,53.32,206.96-1.72
			c2.86-1.69,4.62-4.93,4.62-8.43v-41.26H2400.03z"/>
		<ellipse class="st10" cx="2508.53" cy="2322.81" rx="108.5" ry="28.96"/>
		<path class="st9" d="M2388.61,2436.73c0,0,125.77,58.04,239.91,0l-0.37,71.77c0,0-113.91,70.25-239.54,0V2436.73z"/>
		<path class="st4" d="M2510.05,2508.69l0.08-0.01c2.43-0.4,4.96,0.01,6.98,1.19c3.94,2.29,13.04,5.4,18.33,5.06
			c10.51-0.67,14.79-9.56,15.46-18.13c0.79-10.15-9.08-18.58-21.37-18.58c-2.5,0-4.89,0.35-7.12,0.99l0,0l0,0
			c-3.24,0.93-6.11,2.47-8.43,4.46c-2.09,1.8-4.69,3.17-7.63,3.78c-0.11,0.02-0.21,0.04-0.32,0.06c-3.33,0.66-6.88,0.36-9.97-0.86
			c-3.3-1.31-7.07-1.95-11.06-1.71c-10.62,0.66-19.15,7.8-19.7,16.46c-0.5,7.95,5.52,14.8,14.1,17.33c0,0,14.89,3.64,25.02-7.13
			C2505.84,2510.12,2507.8,2509.06,2510.05,2508.69z"/>
	</g>
	<g>
		<path class="st8" d="M3237.3,2191.64h-185.49l-22.82,26.18c-3.87,6.47-5.91,13.87-5.91,21.42l0,109.99
			c0,15.96,8.82,30.66,22.99,38.01c35.7,18.54,109.21,43.84,193.68-0.58c14.01-7.37,22.78-21.9,22.83-37.72l0.32-108.8
			c0.02-8.11-2.32-16.05-6.73-22.86L3237.3,2191.64z"/>
		<path class="st9" d="M3034.49,2139.96v42.76c0,3.68,1.95,7.04,5.03,8.66c22.17,11.66,114.13,53.32,206.96-1.72
			c2.86-1.69,4.62-4.93,4.62-8.43v-41.26H3034.49z"/>
		<ellipse class="st10" cx="3143" cy="2146.08" rx="108.5" ry="28.96"/>
		<path class="st9" d="M3023.07,2260c0,0,125.77,58.04,239.91,0l-0.37,71.77c0,0-113.91,70.25-239.54,0V2260z"/>
		<path class="st4" d="M3144.52,2331.97l0.08-0.01c2.43-0.4,4.96,0.01,6.98,1.19c3.94,2.29,13.04,5.4,18.33,5.06
			c10.51-0.67,14.79-9.56,15.46-18.13c0.79-10.15-9.08-18.58-21.37-18.58c-2.5,0-4.89,0.35-7.12,0.99l0,0l0,0
			c-3.24,0.93-6.11,2.47-8.43,4.46c-2.09,1.8-4.69,3.17-7.63,3.78c-0.11,0.02-0.21,0.04-0.32,0.06c-3.33,0.66-6.88,0.36-9.97-0.86
			c-3.3-1.31-7.07-1.95-11.06-1.71c-10.62,0.66-19.15,7.8-19.7,16.46c-0.5,7.95,5.52,14.8,14.1,17.33c0,0,14.89,3.64,25.02-7.13
			C3140.3,2333.4,3142.27,2332.34,3144.52,2331.97z"/>
	</g>
	<g>
		<path class="st8" d="M3092.83,2278.36h-185.49l-22.82,26.18c-3.87,6.47-5.91,13.87-5.91,21.42l0,109.99
			c0,15.96,8.82,30.66,22.99,38.01c35.7,18.54,109.21,43.84,193.68-0.58c14.01-7.37,22.78-21.9,22.83-37.72l0.32-108.8
			c0.02-8.11-2.32-16.05-6.73-22.86L3092.83,2278.36z"/>
		<path class="st9" d="M2890.03,2226.69v42.76c0,3.68,1.95,7.04,5.03,8.66c22.17,11.66,114.13,53.32,206.96-1.72
			c2.86-1.69,4.62-4.93,4.62-8.43v-41.26H2890.03z"/>
		<ellipse class="st10" cx="2998.53" cy="2232.81" rx="108.5" ry="28.96"/>
		<path class="st9" d="M2878.61,2346.73c0,0,125.77,58.04,239.91,0l-0.37,71.77c0,0-113.91,70.25-239.54,0V2346.73z"/>
		<path class="st4" d="M3000.05,2418.69l0.08-0.01c2.43-0.4,4.96,0.01,6.98,1.19c3.94,2.29,13.04,5.4,18.33,5.06
			c10.51-0.67,14.79-9.56,15.46-18.13c0.79-10.15-9.08-18.58-21.37-18.58c-2.5,0-4.89,0.35-7.12,0.99l0,0l0,0
			c-3.24,0.93-6.11,2.47-8.43,4.46c-2.09,1.8-4.69,3.17-7.63,3.78c-0.11,0.02-0.21,0.04-0.32,0.06c-3.33,0.66-6.88,0.36-9.97-0.86
			c-3.3-1.31-7.07-1.95-11.06-1.71c-10.62,0.66-19.15,7.8-19.7,16.46c-0.5,7.95,5.52,14.8,14.1,17.33c0,0,14.89,3.64,25.02-7.13
			C2995.84,2420.12,2997.8,2419.06,3000.05,2418.69z"/>
	</g>
	<g>
		<path class="st8" d="M2943.83,2365.36h-185.49l-22.82,26.18c-3.87,6.47-5.91,13.87-5.91,21.42l0,109.99
			c0,15.96,8.82,30.66,22.99,38.01c35.7,18.54,109.21,43.84,193.68-0.58c14.01-7.37,22.78-21.9,22.83-37.72l0.32-108.8
			c0.02-8.11-2.32-16.05-6.73-22.86L2943.83,2365.36z"/>
		<path class="st9" d="M2741.03,2313.69v42.76c0,3.68,1.95,7.04,5.03,8.66c22.17,11.66,114.13,53.32,206.96-1.72
			c2.86-1.69,4.62-4.93,4.62-8.43v-41.26H2741.03z"/>
		<ellipse class="st10" cx="2849.53" cy="2319.81" rx="108.5" ry="28.96"/>
		<path class="st9" d="M2729.61,2433.73c0,0,125.77,58.04,239.91,0l-0.37,71.77c0,0-113.91,70.25-239.54,0V2433.73z"/>
		<path class="st4" d="M2851.05,2505.69l0.08-0.01c2.43-0.4,4.96,0.01,6.98,1.19c3.94,2.29,13.04,5.4,18.33,5.06
			c10.51-0.67,14.79-9.56,15.46-18.13c0.79-10.15-9.08-18.58-21.37-18.58c-2.5,0-4.89,0.35-7.12,0.99l0,0l0,0
			c-3.24,0.93-6.11,2.47-8.43,4.46c-2.09,1.8-4.69,3.17-7.63,3.78c-0.11,0.02-0.21,0.04-0.32,0.06c-3.33,0.66-6.88,0.36-9.97-0.86
			c-3.3-1.31-7.07-1.95-11.06-1.71c-10.62,0.66-19.15,7.8-19.7,16.46c-0.5,7.95,5.52,14.8,14.1,17.33c0,0,14.89,3.64,25.02-7.13
			C2846.84,2507.12,2848.8,2506.06,2851.05,2505.69z"/>
	</g>
	<g>
		<path class="st8" d="M2790.83,2447.36h-185.49l-22.82,26.18c-3.87,6.47-5.91,13.87-5.91,21.42l0,109.99
			c0,15.96,8.82,30.66,22.99,38.01c35.7,18.54,109.21,43.84,193.68-0.58c14.01-7.37,22.78-21.9,22.83-37.72l0.32-108.8
			c0.02-8.11-2.32-16.05-6.73-22.86L2790.83,2447.36z"/>
		<path class="st9" d="M2588.03,2395.69v42.76c0,3.68,1.95,7.04,5.03,8.66c22.17,11.66,114.13,53.32,206.96-1.72
			c2.86-1.69,4.62-4.93,4.62-8.43v-41.26H2588.03z"/>
		<ellipse class="st10" cx="2696.53" cy="2401.81" rx="108.5" ry="28.96"/>
		<path class="st9" d="M2576.61,2515.73c0,0,125.77,58.04,239.91,0l-0.37,71.77c0,0-113.91,70.25-239.54,0V2515.73z"/>
		<path class="st4" d="M2698.05,2587.69l0.08-0.01c2.43-0.4,4.96,0.01,6.98,1.19c3.94,2.29,13.04,5.4,18.33,5.06
			c10.51-0.67,14.79-9.56,15.46-18.13c0.79-10.15-9.08-18.58-21.37-18.58c-2.5,0-4.89,0.35-7.12,0.99l0,0l0,0
			c-3.24,0.93-6.11,2.47-8.43,4.46c-2.09,1.8-4.69,3.17-7.63,3.78c-0.11,0.02-0.21,0.04-0.32,0.06c-3.33,0.66-6.88,0.36-9.97-0.86
			c-3.3-1.31-7.07-1.95-11.06-1.71c-10.62,0.66-19.15,7.8-19.7,16.46c-0.5,7.95,5.52,14.8,14.1,17.33c0,0,14.89,3.64,25.02-7.13
			C2693.84,2589.12,2695.8,2588.06,2698.05,2587.69z"/>
	</g>
	<g>
		<polygon class="st1" points="1763.17,2026.07 2372.45,1661.89 3350.94,2070.42 2719.33,2447.14 		"/>
		<polygon class="st2" points="3350.94,2070.42 3350.94,2005.18 2715.82,2381 2719.33,2447.14 		"/>
		<polygon class="st3" points="2715.82,2381 1763.17,1961.84 2377.07,1607.55 3350.94,2005.18 2715.82,2381 1763.17,1961.84 
			1763.17,2026.07 2719.33,2447.14 		"/>
		<polygon class="st1" points="1763.17,1961.84 1763.17,2026.07 2719.33,2447.14 2715.82,2381 		"/>
	</g>
	<g>
		<path class="st9" d="M2286.94,1855.17l-36.08-43.95h-39.03l-37.13,46.87c-6.37,11.82-9.7,25.03-9.7,38.45v179.04
			c0,13.82,29.55,25.02,66,25.02c36.45,0,66-11.2,66-25.02v-181.31C2297,1880.6,2293.54,1867.15,2286.94,1855.17z"/>
		<path class="st3" d="M2204.89,1794.36v14.7c0,1.57,0.89,3.01,2.3,3.69c6.37,3.09,25.28,10.26,47.55-0.06
			c1.45-0.67,2.38-2.14,2.38-3.73v-14.59"/>
		<ellipse class="st7" cx="2231" cy="1794.36" rx="26.11" ry="7.34"/>
		<path class="st8" d="M2165,1907.87c0,0,36.99,98.46,132,88.3v39.15c0,0-44.24,37.69-132,0V1907.87z"/>
	</g>
	<g>
		<path class="st9" d="M1972.02,1736.58l-36.08-43.95h-39.03l-37.13,46.87c-6.37,11.82-9.7,25.03-9.7,38.45V1957
			c0,13.82,29.55,25.02,66,25.02s66-11.2,66-25.02v-181.31C1982.09,1762.01,1978.62,1748.56,1972.02,1736.58z"/>
		<path class="st3" d="M1889.98,1675.77v14.7c0,1.57,0.89,3.01,2.3,3.69c6.37,3.09,25.28,10.26,47.55-0.06
			c1.45-0.67,2.38-2.14,2.38-3.73v-14.59"/>
		<ellipse class="st7" cx="1916.09" cy="1675.77" rx="26.11" ry="7.34"/>
		<path class="st8" d="M1850.09,1789.28c0,0,36.99,98.46,132,88.3v39.15c0,0-44.24,37.69-132,0V1789.28z"/>
	</g>
	<g>
		<polyline class="st5" points="2407.62,1946.66 2407.84,2177.89 2468.62,2138.66 2456.33,1915.14 		"/>
		<polygon class="st4" points="2312.53,1877.4 2455.53,1915.4 2407.84,2177.89 2262.53,2124.66 		"/>
		<circle class="st11" cx="2353.53" cy="2035.4" r="37"/>
		<polygon class="st4" points="2407.62,1946.66 2454.33,1915.14 2468.62,2138.66 2407.84,2177.89 		"/>
		<path class="st5" d="M2442.14,1940.69l14.19-25.55l-143.8-37.74l-5.37,27.51c-1.49,7.62,3.14,15.09,10.62,17.16l101.64,28.15
			C2428.28,1952.67,2437.68,1948.74,2442.14,1940.69z"/>
		<polygon class="st5" points="2455.53,1915.4 2407.84,2177.89 2438.53,2115.4 2468.62,2138.66 		"/>
	</g>
	<g>
		<polyline class="st5" points="2582.62,2016.66 2582.84,2247.89 2643.62,2208.66 2631.33,1985.14 		"/>
		<polygon class="st4" points="2487.53,1947.4 2630.53,1985.4 2582.84,2247.89 2437.53,2194.66 		"/>
		<circle class="st11" cx="2528.53" cy="2105.4" r="37"/>
		<polygon class="st4" points="2582.62,2016.66 2629.33,1985.14 2643.62,2208.66 2582.84,2247.89 		"/>
		<path class="st5" d="M2617.14,2010.69l14.19-25.55l-143.8-37.74l-5.37,27.51c-1.49,7.62,3.14,15.09,10.62,17.16l101.64,28.15
			C2603.28,2022.67,2612.68,2018.74,2617.14,2010.69z"/>
		<polygon class="st5" points="2630.53,1985.4 2582.84,2247.89 2613.53,2185.4 2643.62,2208.66 		"/>
	</g>
	<g>
		<polyline class="st5" points="3231.09,1809.26 3231.31,2040.49 3292.09,2001.26 3279.8,1777.74 		"/>
		<polygon class="st4" points="3136,1740 3279,1778 3231.31,2040.49 3086,1987.26 		"/>
		<circle class="st11" cx="3177" cy="1898" r="37"/>
		<polygon class="st4" points="3231.09,1809.26 3277.8,1777.74 3292.09,2001.26 3231.31,2040.49 		"/>
		<path class="st5" d="M3265.61,1803.29l14.19-25.55L3136,1740l-5.37,27.51c-1.49,7.62,3.14,15.09,10.62,17.16l101.64,28.15
			C3251.75,1815.27,3261.15,1811.33,3265.61,1803.29z"/>
		<polygon class="st5" points="3279,1778 3231.31,2040.49 3262,1978 3292.09,2001.26 		"/>
	</g>
	<g>
		<polyline class="st5" points="3117.62,1874.66 3117.84,2105.89 3178.62,2066.66 3166.33,1843.14 		"/>
		<polygon class="st4" points="3022.53,1805.4 3165.53,1843.4 3117.84,2105.89 2972.53,2052.66 		"/>
		<circle class="st11" cx="3063.53" cy="1963.4" r="37"/>
		<polygon class="st4" points="3117.62,1874.66 3164.33,1843.14 3178.62,2066.66 3117.84,2105.89 		"/>
		<path class="st5" d="M3152.14,1868.69l14.19-25.55l-143.8-37.74l-5.37,27.51c-1.49,7.62,3.14,15.09,10.62,17.16l101.64,28.15
			C3138.28,1880.67,3147.68,1876.74,3152.14,1868.69z"/>
		<polygon class="st5" points="3165.53,1843.4 3117.84,2105.89 3148.53,2043.4 3178.62,2066.66 		"/>
	</g>
	<g>
		<polyline class="st5" points="2999.62,1946.66 2999.84,2177.89 3060.62,2138.66 3048.33,1915.14 		"/>
		<polygon class="st4" points="2904.53,1877.4 3047.53,1915.4 2999.84,2177.89 2854.53,2124.66 		"/>
		<circle class="st11" cx="2945.53" cy="2035.4" r="37"/>
		<polygon class="st4" points="2999.62,1946.66 3046.33,1915.14 3060.62,2138.66 2999.84,2177.89 		"/>
		<path class="st5" d="M3034.14,1940.69l14.19-25.55l-143.8-37.74l-5.37,27.51c-1.49,7.62,3.14,15.09,10.62,17.16l101.64,28.15
			C3020.28,1952.67,3029.68,1948.74,3034.14,1940.69z"/>
		<polygon class="st5" points="3047.53,1915.4 2999.84,2177.89 3030.53,2115.4 3060.62,2138.66 		"/>
	</g>
	<g>
		<polyline class="st5" points="2881.62,2012.66 2881.84,2243.89 2942.62,2204.66 2930.33,1981.14 		"/>
		<polygon class="st4" points="2786.53,1943.4 2929.53,1981.4 2881.84,2243.89 2736.53,2190.66 		"/>
		<circle class="st11" cx="2827.53" cy="2101.4" r="37"/>
		<polygon class="st4" points="2881.62,2012.66 2928.33,1981.14 2942.62,2204.66 2881.84,2243.89 		"/>
		<path class="st5" d="M2916.14,2006.69l14.19-25.55l-143.8-37.74l-5.37,27.51c-1.49,7.62,3.14,15.09,10.62,17.16l101.64,28.15
			C2902.28,2018.67,2911.68,2014.74,2916.14,2006.69z"/>
		<polygon class="st5" points="2929.53,1981.4 2881.84,2243.89 2912.53,2181.4 2942.62,2204.66 		"/>
	</g>
	<g>
		<polyline class="st5" points="2751.62,2089.66 2751.84,2320.89 2812.62,2281.66 2800.33,2058.14 		"/>
		<polygon class="st4" points="2656.53,2020.4 2799.53,2058.4 2751.84,2320.89 2606.53,2267.66 		"/>
		<circle class="st11" cx="2697.53" cy="2178.4" r="37"/>
		<polygon class="st4" points="2751.62,2089.66 2798.33,2058.14 2812.62,2281.66 2751.84,2320.89 		"/>
		<path class="st5" d="M2786.14,2083.69l14.19-25.55l-143.8-37.74l-5.37,27.51c-1.49,7.62,3.14,15.09,10.62,17.16l101.64,28.15
			C2772.28,2095.67,2781.68,2091.74,2786.14,2083.69z"/>
		<polygon class="st5" points="2799.53,2058.4 2751.84,2320.89 2782.53,2258.4 2812.62,2281.66 		"/>
	</g>
	<g>
		<polygon class="st1" points="1763.17,1642.23 2372.45,1278.06 3350.94,1686.59 2719.33,2063.31 		"/>
		<polygon class="st2" points="3350.94,1686.59 3350.94,1621.35 2715.82,1997.16 2719.33,2063.31 		"/>
		<polygon class="st3" points="2715.82,1997.16 1763.17,1578.01 2377.07,1223.72 3350.94,1621.35 2715.82,1997.16 1763.17,1578.01 
			1763.17,1642.23 2719.33,2063.31 		"/>
		<polygon class="st1" points="1763.17,1578.01 1763.17,1642.23 2719.33,2063.31 2715.82,1997.16 		"/>
	</g>
	<g>
		<path class="st12" d="M2068.28,1393.91h-185.49l-22.82,26.18c-3.87,6.47-5.91,13.87-5.91,21.42l0,109.99
			c0,15.96,8.82,30.66,22.99,38.01c35.7,18.54,109.21,43.84,193.68-0.58c14.01-7.37,22.78-21.9,22.83-37.72l0.32-108.8
			c0.02-8.11-2.32-16.05-6.73-22.86L2068.28,1393.91z"/>
		<path class="st5" d="M1865.47,1342.23v42.76c0,3.68,1.95,7.04,5.03,8.66c22.17,11.66,114.13,53.32,206.96-1.72
			c2.86-1.69,4.62-4.93,4.62-8.43v-41.26H1865.47z"/>
		<ellipse class="st4" cx="1973.97" cy="1348.35" rx="108.5" ry="28.96"/>
		<path class="st5" d="M1854.05,1462.27c0,0,125.77,58.04,239.91,0l-0.37,71.77c0,0-113.91,70.25-239.54,0V1462.27z"/>
		<path class="st4" d="M1975.5,1534.24l0.08-0.01c2.43-0.4,4.96,0.01,6.98,1.19c3.94,2.29,13.04,5.4,18.33,5.06
			c10.51-0.67,14.79-9.56,15.46-18.13c0.79-10.15-9.08-18.58-21.37-18.58c-2.5,0-4.89,0.35-7.12,0.99l0,0l0,0
			c-3.24,0.93-6.11,2.47-8.43,4.46c-2.09,1.8-4.69,3.17-7.63,3.78c-0.11,0.02-0.21,0.04-0.32,0.06c-3.33,0.66-6.88,0.36-9.97-0.86
			c-3.3-1.31-7.07-1.95-11.06-1.71c-10.62,0.66-19.15,7.8-19.7,16.46c-0.5,7.95,5.52,14.8,14.1,17.33c0,0,14.89,3.64,25.02-7.13
			C1971.28,1535.67,1973.25,1534.61,1975.5,1534.24z"/>
	</g>
	<g>
		<path class="st12" d="M2288.31,1488.74h-185.49l-22.82,26.18c-3.87,6.47-5.91,13.87-5.91,21.42l0,109.99
			c0,15.96,8.82,30.66,22.99,38.01c35.7,18.54,109.21,43.84,193.68-0.58c14.01-7.37,22.78-21.9,22.83-37.72l0.32-108.8
			c0.02-8.11-2.32-16.05-6.73-22.86L2288.31,1488.74z"/>
		<path class="st5" d="M2085.51,1437.07v42.76c0,3.68,1.95,7.04,5.03,8.66c22.17,11.66,114.13,53.32,206.96-1.72
			c2.86-1.69,4.62-4.93,4.62-8.43v-41.26H2085.51z"/>
		<ellipse class="st4" cx="2194.01" cy="1443.19" rx="108.5" ry="28.96"/>
		<path class="st5" d="M2074.09,1557.11c0,0,125.77,58.04,239.91,0l-0.37,71.77c0,0-113.91,70.25-239.54,0V1557.11z"/>
		<path class="st4" d="M2195.53,1629.07l0.08-0.01c2.43-0.4,4.96,0.01,6.98,1.19c3.94,2.29,13.04,5.4,18.33,5.06
			c10.51-0.67,14.79-9.56,15.46-18.13c0.79-10.15-9.08-18.58-21.37-18.58c-2.5,0-4.89,0.35-7.12,0.99l0,0l0,0
			c-3.24,0.93-6.11,2.47-8.43,4.46c-2.09,1.8-4.69,3.17-7.63,3.78c-0.11,0.02-0.21,0.04-0.32,0.06c-3.33,0.66-6.88,0.36-9.97-0.86
			c-3.3-1.31-7.07-1.95-11.06-1.71c-10.62,0.66-19.15,7.8-19.7,16.46c-0.5,7.95,5.52,14.8,14.1,17.33c0,0,14.89,3.64,25.02-7.13
			C2191.32,1630.5,2193.28,1629.44,2195.53,1629.07z"/>
	</g>
	<g>
		<polygon class="st8" points="2401.49,1820.3 2504.27,1758.07 2498.98,1542.56 2436.64,1482.56 2401.27,1589.07 		"/>
		<polygon class="st8" points="2306.27,1556.07 2401.27,1589.07 2401.49,1820.3 2308.27,1781.07 		"/>
		<polygon class="st7" points="2306.27,1556.07 2349.27,1464.07 2436.64,1482.56 2401.27,1589.07 		"/>
		<polygon class="st8" points="2428.01,1508.56 2340.63,1482.56 2349.27,1464.07 2436.64,1482.56 		"/>
		<circle class="st9" cx="2352.27" cy="1678.07" r="37"/>
		<polygon class="st7" points="2401.27,1589.07 2498.98,1542.56 2504.27,1758.07 2401.49,1820.3 		"/>
	</g>
	<g>
		<polygon class="st8" points="2551.49,1872.3 2654.27,1810.07 2648.98,1594.56 2586.64,1534.56 2551.27,1641.07 		"/>
		<polygon class="st8" points="2456.27,1608.07 2551.27,1641.07 2551.49,1872.3 2458.27,1833.07 		"/>
		<polygon class="st7" points="2456.27,1608.07 2499.27,1516.07 2586.64,1534.56 2551.27,1641.07 		"/>
		<polygon class="st8" points="2578.01,1560.56 2490.63,1534.56 2499.27,1516.07 2586.64,1534.56 		"/>
		<circle class="st9" cx="2502.27" cy="1730.07" r="37"/>
		<polygon class="st7" points="2551.27,1641.07 2648.98,1594.56 2654.27,1810.07 2551.49,1872.3 		"/>
	</g>
	<g>
		<polygon class="st8" points="3171.22,1681.23 3274,1619 3268.71,1403.48 3206.38,1343.48 3171,1450 		"/>
		<polygon class="st8" points="3076,1417 3171,1450 3171.22,1681.23 3078,1642 		"/>
		<polygon class="st7" points="3076,1417 3119,1325 3206.38,1343.48 3171,1450 		"/>
		<polygon class="st8" points="3197.74,1369.48 3110.36,1343.48 3119,1325 3206.38,1343.48 		"/>
		<circle class="st9" cx="3122" cy="1539" r="37"/>
		<polygon class="st7" points="3171,1450 3268.71,1403.48 3274,1619 3171.22,1681.23 		"/>
	</g>
	<g>
		<polygon class="st8" points="3027.14,1764.23 3129.92,1702 3124.64,1486.48 3062.3,1426.48 3026.92,1533 		"/>
		<polygon class="st8" points="2931.92,1500 3026.92,1533 3027.14,1764.23 2933.92,1725 		"/>
		<polygon class="st7" points="2931.92,1500 2974.92,1408 3062.3,1426.48 3026.92,1533 		"/>
		<polygon class="st8" points="3053.66,1452.48 2966.28,1426.48 2974.92,1408 3062.3,1426.48 		"/>
		<circle class="st9" cx="2977.92" cy="1622" r="37"/>
		<polygon class="st7" points="3026.92,1533 3124.64,1486.48 3129.92,1702 3027.14,1764.23 		"/>
	</g>
	<g>
		<polygon class="st8" points="2869.14,1853.23 2971.92,1791 2966.64,1575.48 2904.3,1515.48 2868.92,1622 		"/>
		<polygon class="st8" points="2773.92,1589 2868.92,1622 2869.14,1853.23 2775.92,1814 		"/>
		<polygon class="st7" points="2773.92,1589 2816.92,1497 2904.3,1515.48 2868.92,1622 		"/>
		<polygon class="st8" points="2895.66,1541.48 2808.28,1515.48 2816.92,1497 2904.3,1515.48 		"/>
		<circle class="st9" cx="2819.92" cy="1711" r="37"/>
		<polygon class="st7" points="2868.92,1622 2966.64,1575.48 2971.92,1791 2869.14,1853.23 		"/>
	</g>
	<g>
		<polygon class="st8" points="2712.14,1940.23 2814.92,1878 2809.64,1662.48 2747.3,1602.48 2711.92,1709 		"/>
		<polygon class="st8" points="2616.92,1676 2711.92,1709 2712.14,1940.23 2618.92,1901 		"/>
		<polygon class="st7" points="2616.92,1676 2659.92,1584 2747.3,1602.48 2711.92,1709 		"/>
		<polygon class="st8" points="2738.66,1628.48 2651.28,1602.48 2659.92,1584 2747.3,1602.48 		"/>
		<circle class="st9" cx="2662.92" cy="1798" r="37"/>
		<polygon class="st7" points="2711.92,1709 2809.64,1662.48 2814.92,1878 2712.14,1940.23 		"/>
	</g>
	<g>
		<polygon class="st1" points="1763.2,1253.99 2372.48,889.82 3350.97,1298.35 2719.36,1675.07 		"/>
		<polygon class="st2" points="3350.97,1298.35 3350.97,1233.11 2715.84,1608.92 2719.36,1675.07 		"/>
		<polygon class="st3" points="2715.84,1608.92 1763.2,1189.77 2377.1,835.48 3350.97,1233.11 2715.84,1608.92 1763.2,1189.77 
			1763.2,1253.99 2719.36,1675.07 		"/>
		<polygon class="st1" points="1763.2,1189.77 1763.2,1253.99 2719.36,1675.07 2715.84,1608.92 		"/>
	</g>
	<g>
		<rect x="3124" y="1025" class="st11" width="142" height="208"/>
		<ellipse class="st11" cx="3195" cy="1230" rx="71" ry="37"/>
		<ellipse class="st13" cx="3195" cy="1023.5" rx="71" ry="23.5"/>
		<path class="st6" d="M3124,1123.21c0,0,9,26.79,56,19.79c30.34-4.52,35-56,86-63.71v93.58c0,0-11-18.87-57.15,0
			c-57.28,23.41-84.85-25.01-84.85-25.01V1123.21z"/>
		<path class="st2" d="M3173,1022c-2,6-6,8-19,5c-6.46-1.49-12-2.46-12-5.5c0-3.04,5.52-4.1,12-5.5
			C3163.29,1014,3174.68,1016.97,3173,1022z"/>
	</g>
	<g>
		<rect x="3009.75" y="1090.82" class="st11" width="142" height="208"/>
		<ellipse class="st11" cx="3080.75" cy="1295.82" rx="71" ry="37"/>
		<ellipse class="st13" cx="3080.75" cy="1089.32" rx="71" ry="23.5"/>
		<path class="st6" d="M3009.75,1189.03c0,0,9,26.79,56,19.79c30.34-4.52,35-56,86-63.71v93.58c0,0-11-18.87-57.15,0
			c-57.28,23.41-84.85-25.01-84.85-25.01V1189.03z"/>
		<path class="st2" d="M3058.75,1087.82c-2,6-6,8-19,5c-6.46-1.49-12-2.46-12-5.5s5.52-4.1,12-5.5
			C3049.03,1079.82,3060.43,1082.79,3058.75,1087.82z"/>
	</g>
	<g>
		<rect x="2878.06" y="1163.48" class="st11" width="142" height="208"/>
		<ellipse class="st11" cx="2949.06" cy="1368.48" rx="71" ry="37"/>
		<ellipse class="st13" cx="2949.06" cy="1161.98" rx="71" ry="23.5"/>
		<path class="st6" d="M2878.06,1261.69c0,0,9,26.79,56,19.79c30.34-4.52,35-56,86-63.71v93.58c0,0-11-18.87-57.15,0
			c-57.28,23.41-84.85-25.01-84.85-25.01V1261.69z"/>
		<path class="st2" d="M2927.06,1160.48c-2,6-6,8-19,5c-6.46-1.49-12-2.46-12-5.5s5.52-4.1,12-5.5
			C2917.35,1152.48,2928.74,1155.45,2927.06,1160.48z"/>
	</g>
	<g>
		<rect x="2751.06" y="1233.48" class="st11" width="142" height="208"/>
		<ellipse class="st11" cx="2822.06" cy="1438.48" rx="71" ry="37"/>
		<ellipse class="st13" cx="2822.06" cy="1231.98" rx="71" ry="23.5"/>
		<path class="st6" d="M2751.06,1331.69c0,0,9,26.79,56,19.79c30.34-4.52,35-56,86-63.71v93.58c0,0-11-18.87-57.15,0
			c-57.28,23.41-84.85-25.01-84.85-25.01V1331.69z"/>
		<path class="st2" d="M2800.06,1230.48c-2,6-6,8-19,5c-6.46-1.49-12-2.46-12-5.5s5.52-4.1,12-5.5
			C2790.35,1222.48,2801.74,1225.45,2800.06,1230.48z"/>
	</g>
	<g>
		<rect x="2474.06" y="1243.48" class="st11" width="142" height="208"/>
		<ellipse class="st11" cx="2545.06" cy="1448.48" rx="71" ry="37"/>
		<ellipse class="st13" cx="2545.06" cy="1241.98" rx="71" ry="23.5"/>
		<path class="st6" d="M2474.06,1341.69c0,0,9,26.79,56,19.79c30.34-4.52,35-56,86-63.71v93.58c0,0-11-18.87-57.15,0
			c-57.28,23.41-84.85-25.01-84.85-25.01V1341.69z"/>
		<path class="st2" d="M2523.06,1240.48c-2,6-6,8-19,5c-6.46-1.49-12-2.46-12-5.5s5.52-4.1,12-5.5
			C2513.35,1232.48,2524.74,1235.45,2523.06,1240.48z"/>
	</g>
	<g>
		<rect x="2343.06" y="1184.48" class="st11" width="142" height="208"/>
		<ellipse class="st11" cx="2414.06" cy="1389.48" rx="71" ry="37"/>
		<ellipse class="st13" cx="2414.06" cy="1182.98" rx="71" ry="23.5"/>
		<path class="st6" d="M2343.06,1282.69c0,0,9,26.79,56,19.79c30.34-4.52,35-56,86-63.71v93.58c0,0-11-18.87-57.15,0
			c-57.28,23.41-84.85-25.01-84.85-25.01V1282.69z"/>
		<path class="st2" d="M2392.06,1181.48c-2,6-6,8-19,5c-6.46-1.49-12-2.46-12-5.5s5.52-4.1,12-5.5
			C2382.35,1173.48,2393.74,1176.45,2392.06,1181.48z"/>
	</g>
	<g>
		<rect x="2618.06" y="1299.48" class="st11" width="142" height="208"/>
		<ellipse class="st11" cx="2689.06" cy="1504.48" rx="71" ry="37"/>
		<ellipse class="st13" cx="2689.06" cy="1297.98" rx="71" ry="23.5"/>
		<path class="st6" d="M2618.06,1397.69c0,0,9,26.79,56,19.79c30.34-4.52,35-56,86-63.71v93.58c0,0-11-18.87-57.15,0
			c-57.28,23.41-84.85-25.01-84.85-25.01V1397.69z"/>
		<path class="st2" d="M2667.06,1296.48c-2,6-6,8-19,5c-6.46-1.49-12-2.46-12-5.5s5.52-4.1,12-5.5
			C2657.35,1288.48,2668.74,1291.45,2667.06,1296.48z"/>
	</g>
	<g>
		<polygon class="st9" points="2011.48,1187.06 1860.48,1187.06 1836.48,1004.06 2035.48,1004.06 		"/>
		<ellipse class="st9" cx="1936.48" cy="1171.56" rx="77" ry="42.5"/>
		<path class="st8" d="M2019.48,1139.06c-7.05,6.33-37.05,31.82-83,32c-46.58,0.19-77.05-25.76-84-32c-3.33-25.67-6.67-51.33-10-77
			c14.35,8.35,48.46,25.63,95,25c43.66-0.59,75.65-16.64,90-25C2024.81,1087.73,2022.14,1113.4,2019.48,1139.06z"/>
		<ellipse class="st8" cx="1935.98" cy="1007.06" rx="99.5" ry="26"/>
		<path class="st8" d="M1836.48,1007.06l-11-34c29.7-6.01,66.97-11.01,110-11c42.92,0.01,80.1,5,109.76,11
			c-3.25,11.33-6.51,22.67-9.76,34H1836.48z"/>
		<ellipse class="st7" cx="1935.48" cy="971.56" rx="110" ry="16.5"/>
		<ellipse class="st7" cx="1934.48" cy="1124.56" rx="46" ry="13.5"/>
	</g>
	<g>
		<polygon class="st9" points="2168.48,1253.06 2017.48,1253.06 1993.48,1070.06 2192.48,1070.06 		"/>
		<ellipse class="st9" cx="2093.48" cy="1237.56" rx="77" ry="42.5"/>
		<path class="st8" d="M2176.48,1205.06c-7.05,6.33-37.05,31.82-83,32c-46.58,0.19-77.05-25.76-84-32c-3.33-25.67-6.67-51.33-10-77
			c14.35,8.35,48.46,25.63,95,25c43.66-0.59,75.65-16.64,90-25C2181.81,1153.73,2179.14,1179.4,2176.48,1205.06z"/>
		<ellipse class="st8" cx="2092.98" cy="1073.06" rx="99.5" ry="26"/>
		<path class="st8" d="M1993.48,1073.06l-11-34c29.7-6.01,66.97-11.01,110-11c42.92,0.01,80.1,5,109.76,11
			c-3.25,11.33-6.51,22.67-9.76,34H1993.48z"/>
		<ellipse class="st7" cx="2092.48" cy="1037.56" rx="110" ry="16.5"/>
		<ellipse class="st7" cx="2091.48" cy="1190.56" rx="46" ry="13.5"/>
	</g>
	<g>
		<polygon class="st9" points="2329,1329 2178,1329 2154,1146 2353,1146 		"/>
		<ellipse class="st9" cx="2254" cy="1313.5" rx="77" ry="42.5"/>
		<path class="st8" d="M2337,1281c-7.05,6.33-37.05,31.82-83,32c-46.58,0.19-77.05-25.76-84-32c-3.33-25.67-6.67-51.33-10-77
			c14.35,8.35,48.46,25.63,95,25c43.66-0.59,75.65-16.64,90-25C2342.33,1229.67,2339.67,1255.33,2337,1281z"/>
		<ellipse class="st8" cx="2253.5" cy="1149" rx="99.5" ry="26"/>
		<path class="st8" d="M2154,1149l-11-34c29.7-6.01,66.97-11.01,110-11c42.92,0.01,80.1,5,109.76,11c-3.25,11.33-6.51,22.67-9.76,34
			H2154z"/>
		<ellipse class="st7" cx="2253" cy="1113.5" rx="110" ry="16.5"/>
		<ellipse class="st7" cx="2252" cy="1266.5" rx="46" ry="13.5"/>
	</g>
	<g>
		<polygon class="st1" points="1763.14,888.22 2372.42,524.05 3350.92,932.58 2719.31,1309.3 		"/>
		<polygon class="st2" points="3350.92,932.58 3350.92,867.34 2715.79,1243.15 2719.31,1309.3 		"/>
		<polygon class="st3" points="2715.79,1243.15 1763.14,824 2377.05,469.71 3350.92,867.34 2715.79,1243.15 1763.14,824 
			1763.14,888.22 2719.31,1309.3 		"/>
		<polygon class="st1" points="1763.14,824 1763.14,888.22 2719.31,1309.3 2715.79,1243.15 		"/>
	</g>
	<g>
		<line class="st14" x1="1508.6" y1="867.34" x2="1763.16" y2="979.78"/>
		<line class="st14" x1="2480.01" y1="1290.93" x2="1763.16" y2="979.78"/>
		<line class="st14" x1="1763.14" y1="706.22" x2="1508.6" y2="867.34"/>
		<line class="st14" x1="2719.31" y1="1112.59" x2="2480.01" y2="1290.93"/>
		<line class="st14" x1="2719.31" y1="1112.59" x2="1763.14" y2="706.22"/>
		<line class="st14" x1="2480.01" y1="1290.93" x2="2466.43" y2="2960.86"/>
		<line class="st14" x1="1763.14" y1="706.22" x2="1763.16" y2="979.78"/>
		<polyline class="st14" points="1509.03,2533.57 1763.23,2391.84 1763.16,979.78 		"/>
		<polyline class="st14" points="2719.31,1112.59 2719.39,2812.91 2466.43,2960.86 		"/>
		<line class="st14" x1="1509.03" y1="2533.57" x2="2466.43" y2="2960.86"/>
		<line class="st14" x1="1508.6" y1="867.34" x2="1509.03" y2="2533.57"/>
	</g>
	<line class="st14" x1="3351" y1="881" x2="3350.59" y2="2428.2"/>
	<polygon class="st15" points="1508.6,1961.44 2471.22,2390.95 2715.79,2242.16 1763.14,1828.33 	"/>
	<polygon class="st1" points="1803,2082 2167,2244 2385,2109 2018,1951 	"/>
	<polygon class="st15" points="2030.21,1942.8 1793.43,2088.41 1793.43,1756.67 2030.21,1607.55 	"/>
	<line class="st15" x1="2030.21" y1="1607.55" x2="2400.21" y2="1765.17"/>
	<path class="st16" d="M1929,1797c0,0-17,219-17.18,291.41L2128,2187l153.82-89.5l-16.75-269.17L2054,1734L1929,1797z"/>
	<path class="st17" d="M2107,1757c0,0,63-171,101,49"/>
	<polygon class="st13" points="2127.51,1894.01 2265.07,1828.33 2054,1734 1929,1797 	"/>
	<g>
		<defs>
			<polygon id="SVGID_1_" points="1966.81,1818.06 2127,1894 2246.22,1837.33 2231.46,1678.07 2083.4,1662.48 1948.17,1723.7 			"/>
		</defs>
		<clipPath id="SVGID_00000117677805374799585760000001595549664318609792_">
			<use xlink:href="#SVGID_1_"  style="overflow:visible;"/>
		</clipPath>
		<g style="clip-path:url(#SVGID_00000117677805374799585760000001595549664318609792_);">
			<path class="st8" d="M2176.01,1769.64l-180.97,40.71l-16.52,30.55c-2.35,7.16-2.72,14.83-1.07,22.19l24.14,107.31
				c3.5,15.57,15.34,27.98,30.77,32.04c38.89,10.25,116.17,18.8,188.83-43.07c12.05-10.26,17.42-26.36,13.99-41.81l-23.57-106.22
				c-1.76-7.92-5.78-15.15-11.58-20.82L2176.01,1769.64z"/>
			<path class="st9" d="M1966.81,1763.73l9.38,41.72c0.81,3.59,3.45,6.44,6.81,7.34c24.19,6.51,123.05,26.97,201.54-47.1
				c2.41-2.28,3.43-5.83,2.66-9.24l-9.05-40.25L1966.81,1763.73z"/>
			
				<ellipse transform="matrix(0.9756 -0.2195 0.2195 0.9756 -332.588 497.7183)" class="st10" cx="2074.01" cy="1745.89" rx="108.5" ry="28.96"/>
			<path class="st9" d="M1982.01,1883.35c0,0,135.44,29.02,234.06-52.65l15.39,70.1c0,0-95.71,93.54-233.7,52.57L1982.01,1883.35z"
				/>
			<path class="st4" d="M2116.29,1926.9l0.08-0.03c2.28-0.92,4.85-1.08,7.07-0.38c4.34,1.37,13.91,2.41,19,0.92
				c10.1-2.96,12.33-12.58,11.1-21.08c-1.46-10.07-12.94-16.13-24.93-13.44c-2.44,0.55-4.7,1.42-6.73,2.53l0,0l0,0
				c-2.95,1.62-5.42,3.75-7.24,6.2c-1.65,2.21-3.88,4.12-6.61,5.37c-0.1,0.04-0.2,0.09-0.29,0.13c-3.11,1.38-6.64,1.87-9.91,1.35
				c-3.51-0.56-7.33-0.35-11.16,0.76c-10.22,2.98-16.97,11.81-15.61,20.38c1.25,7.86,8.64,13.23,17.56,13.81
				c0,0,15.33,0.28,22.85-12.45C2112.49,1929.22,2114.18,1927.76,2116.29,1926.9z"/>
		</g>
	</g>
	<path class="st17" d="M1991,1840c0,0,69-223,93,46"/>
	<polygon class="st15" points="2400.21,2100.42 2163.43,2246.04 2163.43,1914.3 2400.21,1765.17 	"/>
</g>
<g id="drone">
	<g class="st19">
		<defs>
			
				<ellipse id="SVGID_00000054967982541509440490000010441342865277615764_" class="st19" cx="2557.5" cy="602.5" rx="681.5" ry="365.5"/>
		</defs>
		<clipPath id="SVGID_00000023999702687009405790000002845373946539500202_">
			<use xlink:href="#SVGID_00000054967982541509440490000010441342865277615764_"  style="overflow:visible;"/>
		</clipPath>
	</g>
	<g>
		<polyline class="st20" points="2662.86,574 2833,753 2497,904 		"/>
		<line class="st20" x1="2665" y1="828.5" x2="2665" y2="636.53"/>
		<line class="st20" x1="2430" y1="602.5" x2="2430" y2="702"/>
		<line class="st20" x1="2265.07" y1="770.51" x2="2523" y2="652.84"/>
	</g>
	<path class="st2" d="M2621.42,602.5"/>
	<polyline class="st21" points="2611.11,602.5 2840.49,718.96 2842.5,693.5 	"/>
	<polyline class="st21" points="2430,587.95 2121.58,617.38 2106.14,587.95 	"/>
	<polyline class="st21" points="2430,509.57 2287.52,432.13 2287.5,400.5 	"/>
	<polyline class="st21" points="2611.11,495.14 2685.31,400.5 2685.31,373 	"/>
	<polyline class="st21" points="2685.31,553.57 2959.44,524.05 2969.5,495.5 	"/>
	<polyline class="st21" points="2489.5,636.5 2365.5,767.5 2363.5,722.53 	"/>
	<path class="st1" d="M2430,470c0,0,100-100,244,25c0,0,15.29,10.05,31.16,18.61c14.06,7.59,22.88,22.23,22.88,38.2v17.7L2555,675
		L2430,470z"/>
	<path class="st0" d="M2400,617.38l157.03,57.88c0,0,0.04-67.26-25.03-118.25C2485.34,462.08,2399.35,383.43,2400,617.38z"/>
	<path class="st2" d="M2856,386l-142.21-15v19.09c-23.79,16.91-53.15,0-53.15,0V361H2632l-109-27l5-4l134,18l8,4
		c0,0,27.19-4.53,40.16,4.53c1.14,0.8,1.95,1.99,2.25,3.36l0.71,3.29L2737,360l119,21V386z"/>
	<path class="st2" d="M2945.5,518.5c0,0,25.49,15.5,48-2.5v-6.43L3123,539h5.07L3007,490l-20-5c0,0-1-9-28-7l-10-14.23
		l-115.67-33.64l-13.34,2L2929,475l24.5,6.5l-6.44,4.64c-1.57,0.83-2.52,2.49-2.46,4.26L2945.5,518.5z"/>
	<path class="st2" d="M2832.55,675c0,0-13.55,2-16.55,9v27.45c0,0,40,25.55,58-0.45v-22.04c0-4.46-2.64-8.52-6.75-10.25
		c-5.01-2.1-12.63-4.24-22.25-3.71c0,0-15-44-56-92h-11.11l25.57,77.73h22.49L2832.55,675z"/>
	<polygon class="st2" points="2859.89,702 2884.58,706.22 2915,777 2899.57,777 2856,706.22 	"/>
	<path class="st22" d="M2265.07,400.5v29.63c0,0,16.81,12.13,48.87,0V400.5C2313.94,400.5,2284,384,2265.07,400.5z"/>
	<polyline class="st22" points="2293.1,400.5 2310,394 2318,386 2437.55,373 2445,378 2334,404 2317,398 2306,407 	"/>
	<polyline class="st22" points="2274,398 2253.16,400.5 2236,393 2113.05,409 2121.05,416.34 2251,412 2257,406 2273,406 	"/>
	<path class="st22" d="M2075,574v28.66c0,0,18.02,24.66,52.51,0V574C2127.51,574,2105,560,2075,574z"/>
	<polyline class="st22" points="2113.05,569.51 2144,561 2305.85,555.57 2303.37,561.54 2141,574 2121.58,574 	"/>
	<polyline class="st22" points="2086.79,574 2061,574 1913.55,585 1910,591 2038,591 2086.79,579.02 	"/>
	<path class="st22" d="M2336.73,739.5c0,0,24.66,20.64,59.46-4.43v-24.89c0-2.47-1.49-4.7-3.77-5.62
		c-8.62-3.48-30.42-10.62-48.52-2.55c-4.35,1.94-7.17,6.25-7.17,11.01V739.5z"/>
	<polygon class="st22" points="2373.31,718.96 2396.2,739.5 2545.72,767.5 2557.03,759.25 2411.44,718.96 	"/>
	<polyline class="st22" points="2350,714 2200,681 2187,687 2345.09,730 	"/>
	<g id="logo">
		<polygon class="st23" points="2501.86,597.24 2466.12,611.19 2429.86,581.31 2429.35,537.49 2465.1,523.55 2501.35,553.42 		"/>
		<path class="st23" d="M2501.35,553.42c0,0-12.84,42.53-35.74,13.95c0,0-32.39-2.53,0.51,43.82"/>
		<path class="st23" d="M2465.61,567.37c0,0,13.71-30.23-36.25-29.88"/>
	</g>
	<g id="logo_00000093152667206197408130000002931556295542232704_">
		<polygon class="st24" points="2081.39,2025.05 2019.79,2055.08 1960.21,2016.55 1962.22,1947.99 2023.82,1917.97 2083.4,1956.5 		
			"/>
		<path class="st24" d="M2083.4,1956.5c0,0-24.59,69.58-61.6,30.03c0,0-54.82,3.43-2.01,68.56"/>
		<path class="st24" d="M2021.81,1986.52c0,0,25.26-50.51-59.58-38.53"/>
	</g>
	<line class="st13" x1="2127.51" y1="1894.01" x2="2128" y2="2187"/>
</g>
</svg>
