<?xml version="1.0" encoding="utf-8"?>
<!-- Generator: Adobe Illustrator 26.0.3, SVG Export Plug-In . SVG Version: 6.00 Build 0)  -->
<svg version="1.1" xmlns="http://www.w3.org/2000/svg" xmlns:xlink="http://www.w3.org/1999/xlink" x="0px" y="0px"
	 viewBox="0 0 4800 3200" style="enable-background:new 0 0 4800 3200;" xml:space="preserve">
<style type="text/css">
	.st0{fill:#E7E7E7;}
	.st1{fill:#44A03C;}
	.st2{fill:#C4951A;}
	.st3{fill:#C9B7B8;}
	.st4{fill:#E0C7C7;}
	.st5{fill:#616160;}
	.st6{fill:#685F3D;}
	.st7{fill:#68B657;}
	.st8{fill:#99C97F;}
	.st9{fill:#212123;}
	.st10{fill:#3B5D79;}
	.st11{fill:#E5F3F9;}
	.st12{fill:#F6DA55;}
	.st13{display:none;fill:#E0C7C7;}
	.st14{fill:#BDC2C4;}
	.st15{fill:#6C6E70;}
	.st16{fill:#ACAEB0;}
	.st17{fill:#CED8DB;}
	.st18{fill:#72AAC7;}
	.st19{fill:none;stroke:#2A5B6B;stroke-width:6;stroke-miterlimit:10;}
	.st20{fill:#C7CACC;}
	.st21{fill:#A0A2A2;}
	.st22{fill:#72AAC7;stroke:#2B5C6B;stroke-width:6;stroke-miterlimit:10;}
</style>
<g id="Layer_1">
	<polygon class="st0" points="-0.5,3199.5 4799.5,3199.5 4800,1839 2399.87,608.29 -0.5,2003.15 	"/>
	<g>
		<polygon class="st1" points="2156,1897.38 2224.9,1852.33 2203.73,1841.32 2134.64,1886.27 		"/>
		<polygon class="st1" points="2266.98,1824.81 2315.81,1792.88 2294.28,1782.41 2245.93,1813.86 		"/>
		<polygon class="st1" points="2336.42,1754.99 2357.83,1765.41 2458.54,1699.55 2438.03,1688.88 		"/>
		<polygon class="st1" points="1987.87,2167.07 2008.14,2153.6 1951.65,2122.74 1931.26,2136.29 		"/>
		<polygon class="st1" points="1956.75,2027.67 2009.91,1992.92 1988.13,1981.59 1934.83,2016.27 		"/>
		<polygon class="st1" points="2051.99,1965.4 2113.92,1924.9 2092.44,1913.73 2030.34,1954.13 		"/>
		<polygon class="st1" points="2902.59,1855.45 2974.92,1893.33 2992.45,1881.68 2919.96,1843.91 		"/>
		<polygon class="st1" points="3016.11,1914.9 3073.68,1945.05 3091.43,1933.25 3033.73,1903.19 		"/>
		<polygon class="st1" points="3230.41,2027.12 3283,2054.66 3262.25,2068.29 3285.8,2080.54 3324.98,2054.94 3248.51,2015.09 		"/>
		<polygon class="st1" points="3132.71,1954.76 3114.87,1966.61 3189.22,2005.55 3207.23,1993.58 		"/>
		<polygon class="st1" points="2694.43,1746.45 2762.64,1782.17 2779.69,1770.83 2711.34,1735.22 		"/>
		<polygon class="st1" points="2803.83,1803.74 2861.4,1833.88 2878.68,1822.4 2820.98,1792.34 		"/>
		<polygon class="st1" points="2595.67,1694.73 2653.24,1724.88 2670.06,1713.71 2612.36,1683.64 		"/>
		<polygon class="st1" points="2534.06,2440.95 2461.11,2401.09 2441.78,2413.94 2514.89,2453.7 		"/>
		<polygon class="st1" points="2987.27,2248.98 2918.56,2294.13 2941.05,2305.83 3009.97,2260.79 		"/>
		<polygon class="st1" points="3220.28,2095.87 3142.25,2147.14 3166.11,2158.75 3243.7,2108.05 		"/>
		<polygon class="st1" points="2115.48,2212.25 2048.56,2175.69 2028.37,2189.1 2095.44,2225.57 		"/>
		<polygon class="st1" points="2500.62,1672.03 2523.61,1657 2554.48,1673.16 2571.07,1662.14 2520.02,1635.54 2480.23,1661.43 		
			"/>
		<polygon class="st1" points="2677.89,2452.28 2622,2489 2574.48,2463.04 2555.39,2475.72 2623.97,2513.02 2699.63,2463.59 		"/>
		<polygon class="st1" points="1911.23,2100.65 1875.23,2080.98 1914.67,2055.19 1892.63,2043.72 1832.73,2082.7 1890.76,2114.26 		
			"/>
		<polygon class="st1" points="3100.35,2174.68 3029.24,2221.4 3052.07,2233.28 3124.08,2186.22 		"/>
		<polygon class="st1" points="2323.78,2326.06 2252.81,2287.28 2233.05,2300.42 2304.17,2339.09 		"/>
		<polygon class="st1" points="2212.39,2265.2 2155.9,2234.33 2135.94,2247.6 2192.55,2278.39 		"/>
		<polygon class="st1" points="2420.69,2379.01 2364.2,2348.14 2344.67,2361.12 2401.28,2391.91 		"/>
		<polygon class="st1" points="2876.6,2321.71 2814.83,2362.29 2837,2373.82 2898.95,2333.34 		"/>
		<polygon class="st1" points="2794.9,2401.33 2772.87,2389.87 2719.86,2424.7 2741.72,2436.08 		"/>
	</g>
	<path class="st2" d="M1642.76,2748.42c-5.87,12.8-14.98,16.12-34.5,18c-41.5,4-50.5-10.92-50.5-25s30.89-26,50.5-26
		S1653.76,2724.42,1642.76,2748.42z"/>
	<path class="st2" d="M1689,2764c-5.87,12.8-14.98,16.12-34.5,18c-41.5,4-50.5-10.92-50.5-25s30.89-26,50.5-26S1700,2740,1689,2764z
		"/>
	<path class="st3" d="M1586.27,2735L1586.27,2735c-13.96,0-25.27-11.32-25.27-25.27V2553h50.55v156.73
		C1611.55,2723.68,1600.23,2735,1586.27,2735z"/>
	<path class="st4" d="M1629.73,2749L1629.73,2749c-13.96,0-25.27-11.32-25.27-25.27V2567H1655v156.73
		C1655,2737.68,1643.68,2749,1629.73,2749z"/>
	<rect x="3285" y="3200" class="st5" width="1319" height="371"/>
	<rect x="1982" y="995" class="st6" width="69" height="286"/>
	<ellipse class="st1" cx="2008" cy="807.5" rx="180" ry="230.5"/>
	<ellipse class="st7" cx="1966.76" cy="770.5" rx="110.24" ry="160.5"/>
	<ellipse class="st8" cx="1933" cy="742.5" rx="49" ry="59.5"/>
	<g>
		<rect x="2644.31" y="868.18" class="st6" width="69" height="286"/>
		<ellipse class="st1" cx="2670.31" cy="680.68" rx="180" ry="230.5"/>
		<ellipse class="st7" cx="2629.07" cy="643.68" rx="110.24" ry="160.5"/>
		<ellipse class="st8" cx="2595.31" cy="615.68" rx="49" ry="59.5"/>
	</g>
	<polygon class="st7" points="4359,1803 4800,2028 4799.5,3199.5 3597,3200 2992,2822 	"/>
	<g>
		<rect x="4499.18" y="1801.22" class="st6" width="69" height="286"/>
		<ellipse class="st1" cx="4525.18" cy="1613.72" rx="180" ry="230.5"/>
		<ellipse class="st7" cx="4483.94" cy="1576.72" rx="110.24" ry="160.5"/>
		<ellipse class="st8" cx="4450.18" cy="1548.72" rx="49" ry="59.5"/>
	</g>
	<g>
		<rect x="4170.77" y="2080.8" class="st6" width="69" height="286"/>
		<ellipse class="st1" cx="4196.77" cy="1893.3" rx="180" ry="230.5"/>
		<ellipse class="st7" cx="4155.53" cy="1856.3" rx="110.24" ry="160.5"/>
		<ellipse class="st8" cx="4121.77" cy="1828.3" rx="49" ry="59.5"/>
	</g>
	<g>
		<rect x="3806.77" y="2322.8" class="st6" width="69" height="286"/>
		<ellipse class="st1" cx="3832.77" cy="2135.3" rx="180" ry="230.5"/>
		<ellipse class="st7" cx="3791.53" cy="2098.3" rx="110.24" ry="160.5"/>
		<ellipse class="st8" cx="3757.77" cy="2070.3" rx="49" ry="59.5"/>
	</g>
	<g>
		<rect x="3457.77" y="2614.8" class="st6" width="69" height="286"/>
		<ellipse class="st1" cx="3483.77" cy="2427.3" rx="180" ry="230.5"/>
		<ellipse class="st7" cx="3442.53" cy="2390.3" rx="110.24" ry="160.5"/>
		<ellipse class="st8" cx="3408.77" cy="2362.3" rx="49" ry="59.5"/>
	</g>
	<path class="st9" d="M1540,2492l-0.43,120.28c0,0,108.95,48.4,138.19,16.06V2519.5L1540,2492z"/>
	<path class="st2" d="M1540,2510c0,0,73.51,53,137.76,27.5v-114.65l-29.94-79.76l-61.54-8.73C1586.27,2334.36,1532,2386,1540,2510z"
		/>
	<path class="st4" d="M1816,2343c-9.68-7.06-21.86,5.59-32.1,19.62c-10.24,14.03-13.58,39.32-3.9,46.38s28.7-6.78,38.94-20.81
		C1829.18,2374.16,1825.68,2350.06,1816,2343z"/>
	<g>
		<path class="st10" d="M1762.09,2393.48l-44.31-22.28c-8.94-4.49-12.54-15.38-8.04-24.31l46.95-93.38
			c4.49-8.94,15.38-12.54,24.32-8.04l44.31,22.28c8.94,4.49,12.54,15.38,8.04,24.32l-46.95,93.38
			C1781.91,2394.37,1771.02,2397.97,1762.09,2393.48z"/>
		
			<rect x="1742.12" y="2263.04" transform="matrix(0.8934 0.4492 -0.4492 0.8934 1229.8728 -548.8582)" class="st11" width="59.06" height="108.95"/>
	</g>
	<path class="st4" d="M1793,2383l-11.62-23.63c-1.46-4.62-7.56-5.66-10.44-1.76c-1.3,1.76-2.29,3.82-2.95,5.39
		c-2.76,6.62-1.93,27.3,4,37"/>
	<path class="st12" d="M1702,2437l-43.61-59.55c-8.29-8.9-21.78-10.52-31.94-3.85l0,0c-12.6,8.27-15.05,25.74-5.21,37.16
		l52.03,71.71c9.65,11.2,26.38,12.89,38.08,3.86L1793,2416l-30-33L1702,2437z"/>
	<path class="st4" d="M1691.63,2225.57c0,0,7.91,106.19-22.36,104.81C1639,2329,1649,2214,1649,2214L1691.63,2225.57z"/>
	<path class="st6" d="M1543.73,2339.2c16.44,7.11,44.32,14.08,86,8.95l41.41-9.05c0,0-16.86-67.95,0-113.52h20.49
		c0,0,21.98-86.3-105.63-66.57c-87.47,13.52-74.4,112.4-65.38,152.33C1523.43,2323.78,1532.01,2334.14,1543.73,2339.2z"/>
	<path class="st13" d="M1767.09,2366.39l0.77-11.33c0.14-1.98,1.3-3.83,3.14-4.58c2.19-0.88,5.35-0.32,8.74,6.3"/>
</g>
<g id="binalar">
	<g>
		<polygon class="st14" points="3513.97,1872.89 2750.49,1484.21 2750.49,665.2 3513.97,1033.06 		"/>
		<polygon class="st15" points="3513.97,1872.89 4062.29,1484.21 4062.29,703.21 3513.97,1033.06 		"/>
		<polygon class="st16" points="2750.49,665.2 3277.99,380.63 4062.29,703.21 3513.97,1033.06 		"/>
		<polygon class="st14" points="2858.39,717.18 3284.93,484.74 3957.04,766.53 4062.29,703.21 3277.99,380.63 2750.49,665.2 		"/>
		<polygon class="st15" points="3277.99,380.63 3284.93,484.74 2858.39,717.18 2750.49,665.2 		"/>
		<path class="st17" d="M3277.99,380.63l-527.5,284.57l763.48,367.86l548.32-329.85L3277.99,380.63z M2868.49,630.5l411.38-231.86
			l733.84,308.21l-430.33,256.81L2868.49,630.5z"/>
		<polygon class="st17" points="4041.47,880.36 4159.46,928.95 3708.31,1234.34 3597.26,1178.81 		"/>
		<polygon class="st14" points="3597.26,1813.85 3597.26,1178.81 3708.31,1234.34 3708.31,1867.99 		"/>
		<polygon class="st15" points="4159.46,928.95 4159.46,1506.87 3708.31,1867.99 3708.31,1234.34 		"/>
		<polygon class="st18" points="3652.79,1288.05 3708.31,1315.76 4013.71,1109.07 4013.71,1623.54 3708.31,1867.99 3652.79,1840.92 
					"/>
		<g>
			<line class="st19" x1="3708.42" y1="1347.87" x2="3708.31" y2="1867.99"/>
			<line class="st19" x1="3757.77" y1="1312.68" x2="3757.9" y2="1830.3"/>
			<line class="st19" x1="3810.77" y1="1275.73" x2="3810.77" y2="1790.34"/>
			<line class="st19" x1="3864.51" y1="1242.46" x2="3864.51" y2="1751.06"/>
			<line class="st19" x1="3918.51" y1="1204.46" x2="3918.51" y2="1707.06"/>
			<line class="st19" x1="3972.51" y1="1166.46" x2="3972.51" y2="1661.06"/>
			<g>
				<polyline class="st19" points="3652.79,1451.92 3707.5,1478.5 4016.77,1260.46 				"/>
				<polyline class="st19" points="3652.37,1588.19 3707.09,1614.78 4016.36,1394.74 				"/>
				<polyline class="st19" points="3650.37,1717.19 3705.09,1743.78 4014.36,1513.74 				"/>
			</g>
		</g>
		<polygon class="st17" points="3652.79,1288.05 3638.91,1296.81 3708.31,1331.51 4027.59,1116.35 4013.71,1109.07 3708.31,1315.76 
					"/>
		<polygon class="st20" points="4027.59,1116.35 4027.59,1612.43 4013.71,1623.54 4013.71,1142.59 3708.42,1347.87 3652.79,1320.91 
			3652.79,1840.92 3638.91,1834.15 3638.91,1296.81 3708.31,1331.51 		"/>
		<polygon class="st21" points="3708.42,1347.87 3708.31,1331.51 4027.59,1116.35 4027.59,1612.43 4013.71,1623.54 4013.71,1142.59 
					"/>
	</g>
	<polygon class="st15" points="1184.6,1995.9 1915.3,1548.62 1888.16,716.13 1155.83,1142.65 	"/>
	<polygon class="st14" points="1184.6,1995.9 608.02,1651 583.37,856.75 1155.83,1142.65 	"/>
	<polygon class="st16" points="1888.16,716.13 1340,473.74 583.37,856.75 1155.83,1142.65 	"/>
	<polygon class="st15" points="1784.67,776.4 1341.23,578.08 693.26,911.64 583.37,856.75 1340,473.74 1888.16,716.13 	"/>
	<polygon class="st14" points="1340,473.74 1341.23,578.08 1784.67,776.4 1888.16,716.13 	"/>
	<path class="st17" d="M583.37,856.75l572.47,285.9l732.33-426.52L1340,473.74L583.37,856.75z M1081.2,1078.89L632.09,856.57
		l707.45-364.73l428.27,198.93L1081.2,1078.89z"/>
	<g>
		<polygon class="st18" points="1778.64,1545.81 1848,1503 1828,839.04 1766.28,875.77 		"/>
		<polygon class="st18" points="1576.85,988.48 1506.2,1030.52 1518.67,1706.26 1589.29,1662.68 		"/>
		<polygon class="st18" points="1704.92,912.28 1638.21,951.97 1650.63,1624.82 1717.31,1583.66 		"/>
		<polygon class="st18" points="1386.06,1788.11 1457.33,1744.12 1444.84,1067.03 1373.53,1109.46 		"/>
		<polygon class="st18" points="1312.17,1145.98 1235.76,1191.44 1255,1869 1324.72,1825.97 		"/>
	</g>
	<polygon class="st15" points="1224,1319.09 1226.4,1389.21 1845.89,1027.55 1843.73,956.48 	"/>
	<polygon class="st15" points="1228.55,1505.35 1230.95,1575.47 1850.44,1211.81 1848.27,1140.74 	"/>
	<polygon class="st15" points="1235.11,1686.87 1237.51,1757 1859,1391.4 1854.83,1320.33 	"/>
	<polygon class="st22" points="659,995 1078,1210 1102,1844 682,1602 	"/>
	<line class="st22" x1="725.39" y1="1029.07" x2="742.2" y2="1635.54"/>
	<line class="st22" x1="796.08" y1="1066.45" x2="810.89" y2="1674.92"/>
	<line class="st22" x1="866.08" y1="1101.45" x2="880.89" y2="1713.92"/>
	<line class="st22" x1="935.42" y1="1140.04" x2="950.23" y2="1754.51"/>
	<line class="st22" x1="1008.08" y1="1175.45" x2="1022.89" y2="1795.92"/>
	<line class="st22" x1="664.59" y1="1164.65" x2="1080.77" y2="1371.37"/>
	<line class="st22" x1="672.22" y1="1320.69" x2="1088.39" y2="1527.41"/>
	<line class="st22" x1="678.22" y1="1466.69" x2="1094.39" y2="1681.41"/>
	<g>
		<rect x="590.05" y="1789.69" class="st6" width="69" height="286"/>
		<ellipse class="st1" cx="616.05" cy="1602.19" rx="180" ry="230.5"/>
		<ellipse class="st7" cx="574.81" cy="1565.19" rx="110.24" ry="160.5"/>
		<ellipse class="st8" cx="541.05" cy="1537.19" rx="49" ry="59.5"/>
	</g>
	<g>
		<polygon class="st10" points="2895.61,1478.21 2824.98,1440.97 2825.68,777.32 2888.51,809.1 		"/>
		<polygon class="st10" points="3081.32,906.63 3153.23,943 3160.4,1617.81 3088.47,1579.89 		"/>
		<polygon class="st10" points="2950.96,840.69 3018.86,875.04 3026,1546.95 2958.09,1511.15 		"/>
		<polygon class="st10" points="3295.46,1689.02 3222.87,1650.74 3215.69,974.6 3288.27,1011.31 		"/>
		<polygon class="st10" points="3350.72,1042.9 3428.49,1082.24 3428.94,1759.39 3357.94,1721.95 		"/>
	</g>
	<polygon class="st14" points="3445.09,1208.62 3448.2,1278.72 2802.24,966.78 2798.83,895.76 	"/>
	<polygon class="st14" points="3455.18,1394.66 3458.28,1464.76 2812.16,1150.83 2808.75,1079.81 	"/>
	<polygon class="st14" points="3462.88,1576.14 3465.99,1646.24 2817.73,1330.54 2816.31,1259.36 	"/>
</g>
</svg>
