<?xml version="1.0" encoding="utf-8"?>
<!-- Generator: Adobe Illustrator 26.0.3, SVG Export Plug-In . SVG Version: 6.00 Build 0)  -->
<svg version="1.1" xmlns="http://www.w3.org/2000/svg" xmlns:xlink="http://www.w3.org/1999/xlink" x="0px" y="0px"
	 viewBox="0 0 4800 3200" style="enable-background:new 0 0 4800 3200;" xml:space="preserve">
<style type="text/css">
	.st0{fill:#E7E7E7;}
	.st1{fill:#685F3D;}
	.st2{fill:#44A03C;}
	.st3{fill:#68B657;}
	.st4{fill:#99C97F;}
	.st5{fill:#6B9ED5;}
	.st6{fill:#C4951A;}
	.st7{fill:#C9B7B8;}
	.st8{fill:#E0C7C7;}
	.st9{fill:#212123;}
	.st10{fill:#F6DA55;}
	.st11{fill:#BDC2C4;}
	.st12{fill:#6C6E70;}
	.st13{fill:#ACAEB0;}
	.st14{fill:#CED8DB;}
	.st15{fill:#72AAC7;}
	.st16{fill:none;stroke:#2A5B6B;stroke-width:6;stroke-miterlimit:10;}
	.st17{fill:#C7CACC;}
	.st18{fill:#A0A2A2;}
	.st19{fill:#72AAC7;stroke:#2B5C6B;stroke-width:6;stroke-miterlimit:10;}
	.st20{fill:#3B5D79;}
	.st21{fill:none;stroke:#C4951A;stroke-width:12;stroke-miterlimit:10;}
	.st22{fill:none;stroke:#212123;stroke-width:18;stroke-linecap:round;stroke-linejoin:round;stroke-miterlimit:10;}
	.st23{fill:none;stroke:#6C6E70;stroke-width:23;stroke-linejoin:round;stroke-miterlimit:10;}
	.st24{fill:#6B6E6F;}
	.st25{fill:none;stroke:#6B9ED5;stroke-width:9;stroke-miterlimit:10;}
	.st26{fill:none;stroke:#212123;stroke-width:13;stroke-linejoin:round;stroke-miterlimit:10;}
	.st27{fill:none;stroke:#212123;stroke-width:13;stroke-linecap:round;stroke-linejoin:round;stroke-miterlimit:10;}
	.st28{fill:#DDD9C9;}
</style>
<g id="Layer_1">
	<polygon class="st0" points="-0.25,3200 4799.75,3200 4800.25,1839.5 2400.12,608.79 -0.25,2003.65 	"/>
	<rect x="1982.39" y="1001.63" class="st1" width="69" height="286"/>
	<ellipse class="st2" cx="2008.39" cy="814.13" rx="180" ry="230.5"/>
	<ellipse class="st3" cx="1967.15" cy="777.13" rx="110.24" ry="160.5"/>
	<ellipse class="st4" cx="1933.39" cy="749.13" rx="49" ry="59.5"/>
	<g>
		<rect x="2644.7" y="874.81" class="st1" width="69" height="286"/>
		<ellipse class="st2" cx="2670.7" cy="687.31" rx="180" ry="230.5"/>
		<ellipse class="st3" cx="2629.46" cy="650.31" rx="110.24" ry="160.5"/>
		<ellipse class="st4" cx="2595.7" cy="622.31" rx="49" ry="59.5"/>
	</g>
	<polygon class="st3" points="4359.39,1809.63 4800.39,2034.63 4799.89,3206.13 3597.39,3206.63 2992.39,2828.63 	"/>
	<g>
		<rect x="4499.57" y="1807.85" class="st1" width="69" height="286"/>
		<ellipse class="st2" cx="4525.57" cy="1620.35" rx="180" ry="230.5"/>
		<ellipse class="st3" cx="4484.33" cy="1583.35" rx="110.24" ry="160.5"/>
		<ellipse class="st4" cx="4450.57" cy="1555.35" rx="49" ry="59.5"/>
	</g>
	<g>
		<rect x="4171.16" y="2087.43" class="st1" width="69" height="286"/>
		<ellipse class="st2" cx="4197.16" cy="1899.93" rx="180" ry="230.5"/>
		<ellipse class="st3" cx="4155.92" cy="1862.93" rx="110.24" ry="160.5"/>
		<ellipse class="st4" cx="4122.16" cy="1834.93" rx="49" ry="59.5"/>
	</g>
	<g>
		<rect x="3807.16" y="2329.43" class="st1" width="69" height="286"/>
		<ellipse class="st2" cx="3833.16" cy="2141.93" rx="180" ry="230.5"/>
		<ellipse class="st3" cx="3791.92" cy="2104.93" rx="110.24" ry="160.5"/>
		<ellipse class="st4" cx="3758.16" cy="2076.93" rx="49" ry="59.5"/>
	</g>
	<g>
		<rect x="3458.16" y="2621.43" class="st1" width="69" height="286"/>
		<ellipse class="st2" cx="3484.16" cy="2433.93" rx="180" ry="230.5"/>
		<ellipse class="st3" cx="3442.92" cy="2396.93" rx="110.24" ry="160.5"/>
		<ellipse class="st4" cx="3409.16" cy="2368.93" rx="49" ry="59.5"/>
	</g>
	<g>
		<polygon class="st5" points="2290.56,1989.13 2328.78,1964.14 2317.04,1958.03 2278.71,1982.96 		"/>
		<polygon class="st5" points="2352.12,1948.87 2379.21,1931.16 2367.26,1925.35 2340.45,1942.8 		"/>
		<polygon class="st5" points="2390.64,1910.14 2402.51,1915.92 2458.38,1879.39 2447,1873.47 		"/>
		<polygon class="st5" points="2197.3,2138.73 2208.54,2131.25 2177.2,2114.13 2165.89,2121.65 		"/>
		<polygon class="st5" points="2180.03,2061.4 2209.52,2042.12 2197.44,2035.84 2167.87,2055.07 		"/>
		<polygon class="st5" points="2232.86,2026.85 2267.21,2004.39 2255.3,1998.19 2220.85,2020.61 		"/>
		<polygon class="st5" points="2704.7,1965.87 2744.82,1986.88 2754.54,1980.41 2714.33,1959.46 		"/>
		<polygon class="st5" points="2767.67,1998.84 2799.6,2015.57 2809.45,2009.02 2777.44,1992.35 		"/>
		<polygon class="st5" points="2886.54,2061.09 2915.72,2076.37 2904.21,2083.93 2917.27,2090.73 2939.01,2076.52 2896.58,2054.42 
					"/>
		<polygon class="st5" points="2832.35,2020.95 2822.45,2027.53 2863.7,2049.13 2873.68,2042.49 		"/>
		<polygon class="st5" points="2589.23,1905.4 2627.06,1925.21 2636.53,1918.93 2598.61,1899.17 		"/>
		<polygon class="st5" points="2649.91,1937.18 2681.85,1953.9 2691.43,1947.53 2659.43,1930.86 		"/>
		<polygon class="st5" points="2534.45,1876.71 2566.38,1893.44 2575.71,1887.24 2543.7,1870.56 		"/>
		<polygon class="st5" points="2500.27,2290.65 2459.8,2268.54 2449.08,2275.66 2489.64,2297.72 		"/>
		<polygon class="st5" points="2751.67,2184.16 2713.56,2209.2 2726.03,2215.69 2764.26,2190.71 		"/>
		<polygon class="st5" points="2880.93,2099.23 2837.64,2127.67 2850.88,2134.11 2893.92,2105.99 		"/>
		<polygon class="st5" points="2268.08,2163.79 2230.96,2143.5 2219.76,2150.95 2256.96,2171.18 		"/>
		<polygon class="st5" points="2481.72,1864.12 2494.48,1855.78 2511.6,1864.75 2520.8,1858.63 2492.49,1843.88 2470.41,1858.24 		
			"/>
		<polygon class="st5" points="2580.05,2296.93 2549.05,2317.3 2522.69,2302.9 2512.1,2309.94 2550.15,2330.63 2592.11,2303.2 		"/>
		<polygon class="st5" points="2154.78,2101.88 2134.81,2090.97 2156.69,2076.66 2144.46,2070.3 2111.24,2091.92 2143.43,2109.43 		
			"/>
		<polygon class="st5" points="2814.4,2142.94 2774.96,2168.86 2787.62,2175.45 2827.56,2149.35 		"/>
		<polygon class="st5" points="2383.63,2226.92 2344.26,2205.41 2333.3,2212.69 2372.75,2234.15 		"/>
		<polygon class="st5" points="2321.84,2193.16 2290.5,2176.04 2279.43,2183.4 2310.83,2200.47 		"/>
		<polygon class="st5" points="2437.38,2256.29 2406.05,2239.17 2395.21,2246.37 2426.62,2263.44 		"/>
		<polygon class="st5" points="2690.28,2224.5 2656.02,2247.01 2668.31,2253.41 2702.68,2230.95 		"/>
		<polygon class="st5" points="2644.96,2268.67 2632.74,2262.31 2603.34,2281.63 2615.47,2287.94 		"/>
	</g>
	<path class="st6" d="M1643.15,2755.05c-5.87,12.8-14.98,16.12-34.5,18c-41.5,4-50.5-10.92-50.5-25s30.89-26,50.5-26
		S1654.15,2731.05,1643.15,2755.05z"/>
	<path class="st6" d="M1689.39,2770.63c-5.87,12.8-14.98,16.12-34.5,18c-41.5,4-50.5-10.92-50.5-25s30.89-26,50.5-26
		C1674.49,2737.63,1700.39,2746.63,1689.39,2770.63z"/>
	<path class="st7" d="M1586.66,2741.63L1586.66,2741.63c-13.96,0-25.27-11.32-25.27-25.27v-156.73h50.55v156.73
		C1611.93,2730.31,1600.62,2741.63,1586.66,2741.63z"/>
	<path class="st8" d="M1630.11,2755.63L1630.11,2755.63c-13.96,0-25.27-11.32-25.27-25.27v-156.73h50.55v156.73
		C1655.39,2744.31,1644.07,2755.63,1630.11,2755.63z"/>
	<path class="st9" d="M1540.39,2498.63l-0.43,120.28c0,0,108.95,48.4,138.19,16.06v-108.84L1540.39,2498.63z"/>
	<path class="st6" d="M1540.39,2516.63c0,0,73.51,53,137.76,27.5v-101.34c0-8.8-1.58-17.52-4.68-25.75l-25.27-67.3l-61.54-8.73
		C1586.66,2340.99,1532.39,2392.63,1540.39,2516.63z"/>
	<path class="st8" d="M1686.96,2607.68c11.74-2.4,10.58-19.92,7.11-36.94c-3.48-17.02-19.93-36.52-31.67-34.12
		s-14.31,25.79-10.83,42.8C1655.05,2596.45,1675.22,2610.08,1686.96,2607.68z"/>
	<path class="st8" d="M1672.87,2563.74l25.29,7.32c4.4,2.03,9.27-1.78,8.33-6.54c-0.43-2.15-1.28-4.27-2-5.81
		c-3.03-6.49-18.88-19.81-30.05-21.95"/>
	<path class="st10" d="M1694.91,2540.38l-19.96-61.44c-0.64-1.96-1.11-3.96-1.41-6l-10.45-69.97
		c-4.26-11.39-16.11-18.04-28.05-15.76h0c-14.81,2.83-23.74,18.04-19,32.35l6.83,56.98c0.75,6.28,2.11,12.48,4.04,18.5l18.84,58.65
		L1694.91,2540.38z"/>
	<path class="st8" d="M1692.01,2232.2c0,0,7.91,106.19-22.36,104.81s-20.27-116.38-20.27-116.38L1692.01,2232.2z"/>
	<path class="st1" d="M1544.11,2345.83c16.44,7.11,44.32,14.08,86,8.95l41.41-9.05c0,0-16.86-67.95,0-113.52h20.49
		c0,0,21.98-86.3-105.63-66.57c-87.47,13.52-74.4,112.39-65.38,152.33C1523.82,2330.41,1532.4,2340.76,1544.11,2345.83z"/>
	<g>
		<polygon class="st11" points="3514.36,1879.51 2750.88,1490.83 2750.88,671.83 3514.36,1039.69 		"/>
		<polygon class="st12" points="3514.36,1879.51 4062.68,1490.83 4062.68,709.84 3514.36,1039.69 		"/>
		<polygon class="st13" points="2750.88,671.83 3278.38,387.26 4062.68,709.84 3514.36,1039.69 		"/>
		<polygon class="st11" points="2858.77,723.81 3285.32,491.37 3957.42,773.16 4062.68,709.84 3278.38,387.26 2750.88,671.83 		"/>
		<polygon class="st12" points="3278.38,387.26 3285.32,491.37 2858.77,723.81 2750.88,671.83 		"/>
		<path class="st14" d="M3278.38,387.26l-527.5,284.57l763.48,367.86l548.32-329.85L3278.38,387.26z M2868.87,637.12l411.38-231.86
			l733.84,308.21l-430.33,256.81L2868.87,637.12z"/>
		<polygon class="st14" points="4041.86,886.99 4159.85,935.58 3708.7,1240.97 3597.65,1185.44 		"/>
		<polygon class="st11" points="3597.65,1820.47 3597.65,1185.44 3708.7,1240.97 3708.7,1874.62 		"/>
		<polygon class="st12" points="4159.85,935.58 4159.85,1513.49 3708.7,1874.62 3708.7,1240.97 		"/>
		<polygon class="st15" points="3653.18,1294.68 3708.7,1322.38 4014.09,1115.7 4014.09,1630.16 3708.7,1874.62 3653.18,1847.55 		
			"/>
		<g>
			<line class="st16" x1="3708.81" y1="1354.49" x2="3708.7" y2="1874.62"/>
			<line class="st16" x1="3758.16" y1="1319.31" x2="3758.29" y2="1836.93"/>
			<line class="st16" x1="3811.16" y1="1282.36" x2="3811.16" y2="1796.97"/>
			<line class="st16" x1="3864.9" y1="1249.09" x2="3864.9" y2="1757.69"/>
			<line class="st16" x1="3918.9" y1="1211.09" x2="3918.9" y2="1713.69"/>
			<line class="st16" x1="3972.9" y1="1173.09" x2="3972.9" y2="1667.69"/>
			<g>
				<polyline class="st16" points="3653.18,1458.54 3707.89,1485.13 4017.16,1267.09 				"/>
				<polyline class="st16" points="3652.76,1594.82 3707.47,1621.4 4016.74,1401.36 				"/>
				<polyline class="st16" points="3650.76,1723.82 3705.47,1750.4 4014.74,1520.36 				"/>
			</g>
		</g>
		<polygon class="st14" points="3653.18,1294.68 3639.29,1303.43 3708.7,1338.14 4027.98,1122.98 4014.09,1115.7 3708.7,1322.38 		
			"/>
		<polygon class="st17" points="4027.98,1122.98 4027.98,1619.05 4014.09,1630.16 4014.09,1149.21 3708.81,1354.49 3653.18,1327.54 
			3653.18,1847.55 3639.29,1840.78 3639.29,1303.43 3708.7,1338.14 		"/>
		<polygon class="st18" points="3708.81,1354.49 3708.7,1338.14 4027.98,1122.98 4027.98,1619.05 4014.09,1630.16 4014.09,1149.21 
					"/>
	</g>
	<polygon class="st12" points="1184.99,2002.53 1915.69,1555.25 1888.55,722.76 1156.22,1149.28 	"/>
	<polygon class="st11" points="1184.99,2002.53 608.41,1657.63 583.76,863.38 1156.22,1149.28 	"/>
	<polygon class="st13" points="1888.55,722.76 1340.39,480.37 583.76,863.38 1156.22,1149.28 	"/>
	<polygon class="st12" points="1785.06,783.03 1341.62,584.71 693.65,918.26 583.76,863.38 1340.39,480.37 1888.55,722.76 	"/>
	<polygon class="st11" points="1340.39,480.37 1341.62,584.71 1785.06,783.03 1888.55,722.76 	"/>
	<path class="st14" d="M583.76,863.38l572.47,285.9l732.33-426.52l-548.16-242.39L583.76,863.38z M1081.59,1085.52L632.48,863.2
		l707.45-364.73L1768.2,697.4L1081.59,1085.52z"/>
	<g>
		<polygon class="st15" points="1779.03,1552.43 1848.39,1509.63 1828.39,845.67 1766.67,882.39 		"/>
		<polygon class="st15" points="1577.23,995.11 1506.59,1037.15 1519.06,1712.89 1589.68,1669.3 		"/>
		<polygon class="st15" points="1705.3,918.91 1638.6,958.6 1651.01,1631.45 1717.7,1590.29 		"/>
		<polygon class="st15" points="1386.44,1794.74 1457.72,1750.75 1445.23,1073.66 1373.92,1116.09 		"/>
		<polygon class="st15" points="1312.56,1152.6 1236.15,1198.07 1255.39,1875.63 1325.11,1832.6 		"/>
	</g>
	<polygon class="st12" points="1224.39,1325.71 1226.79,1395.84 1846.28,1034.18 1844.11,963.11 	"/>
	<polygon class="st12" points="1228.94,1511.98 1231.34,1582.1 1850.83,1218.44 1848.66,1147.37 	"/>
	<polygon class="st12" points="1235.49,1693.5 1237.9,1763.63 1859.39,1398.03 1855.22,1326.96 	"/>
	<polygon class="st19" points="659.39,1001.63 1078.39,1216.63 1102.39,1850.63 682.39,1608.63 	"/>
	<line class="st19" x1="725.78" y1="1035.7" x2="742.59" y2="1642.16"/>
	<line class="st19" x1="796.47" y1="1073.08" x2="811.28" y2="1681.55"/>
	<line class="st19" x1="866.47" y1="1108.08" x2="881.28" y2="1720.55"/>
	<line class="st19" x1="935.81" y1="1146.66" x2="950.62" y2="1761.13"/>
	<line class="st19" x1="1008.47" y1="1182.08" x2="1023.28" y2="1802.55"/>
	<line class="st19" x1="664.98" y1="1171.28" x2="1081.15" y2="1378"/>
	<line class="st19" x1="672.6" y1="1327.32" x2="1088.77" y2="1534.04"/>
	<line class="st19" x1="678.6" y1="1473.32" x2="1094.77" y2="1688.04"/>
	<g>
		<rect x="590.44" y="1796.32" class="st1" width="69" height="286"/>
		<ellipse class="st2" cx="616.44" cy="1608.82" rx="180" ry="230.5"/>
		<ellipse class="st3" cx="575.2" cy="1571.82" rx="110.24" ry="160.5"/>
		<ellipse class="st4" cx="541.44" cy="1543.82" rx="49" ry="59.5"/>
	</g>
	<g>
		<polygon class="st20" points="2896,1484.84 2825.36,1447.6 2826.07,783.95 2888.9,815.73 		"/>
		<polygon class="st20" points="3081.71,913.26 3153.62,949.63 3160.78,1624.44 3088.86,1586.52 		"/>
		<polygon class="st20" points="2951.35,847.32 3019.25,881.67 3026.39,1553.58 2958.47,1517.78 		"/>
		<polygon class="st20" points="3295.85,1695.65 3223.26,1657.37 3216.07,981.22 3288.65,1017.94 		"/>
		<polygon class="st20" points="3351.11,1049.53 3428.88,1088.87 3429.33,1766.02 3358.32,1728.58 		"/>
	</g>
	<polygon class="st11" points="3445.48,1215.24 3448.59,1285.34 2802.63,973.41 2799.21,902.39 	"/>
	<polygon class="st11" points="3455.56,1401.29 3458.67,1471.39 2812.55,1157.46 2809.14,1086.44 	"/>
	<polygon class="st11" points="3463.27,1582.77 3466.38,1652.87 2818.11,1337.17 2816.69,1265.99 	"/>
	<line class="st21" x1="2520.8" y1="1786.74" x2="2514.54" y2="477.25"/>
	<g>
		<polyline class="st22" points="2401.97,440.65 2354,667 2465.47,449.99 		"/>
		<polyline class="st22" points="2632.01,439.58 2669.51,667.9 2568.15,445.98 		"/>
		<polyline class="st23" points="2583.09,440.65 2774.46,581.11 2776.47,555.65 		"/>
		<polyline class="st23" points="2401.97,416.1 2099.56,411.52 2084.12,380.1 		"/>
		<polyline class="st23" points="2401.97,347.72 2279.49,262.28 2279.47,230.65 		"/>
		<polyline class="st23" points="2599.09,349.29 2703.29,266.65 2703.29,239.15 		"/>
		<polyline class="st23" points="2635.29,405.71 2935.41,380.19 2945.47,347.65 		"/>
		<polyline class="st23" points="2419.47,450.65 2291.47,587.65 2289.47,542.67 		"/>
		<path class="st12" d="M2873.97,252.15l-142.21-15v19.09c-23.79,16.91-53.15,0-53.15,0v-29.09h-28.64l-109-27l5-4l134,18l8,4
			c0,0,27.19-4.53,40.16,4.53c1.14,0.8,1.95,1.99,2.25,3.36l0.71,3.29l23.89-3.17l119,21V252.15z"/>
		<path class="st12" d="M2921.47,370.65c3.79,2.3,21.7,18.53,48-2.5v-6.43l129.5,29.43h5.07l-121.07-49l-20-5c0,0-1-9-28-7
			l-10-14.23l-115.67-33.64l-13.34,2l109.01,42.87l24.5,6.5l-6.44,4.64c-1.57,0.83-2.52,2.49-2.46,4.26L2921.47,370.65z"/>
		<path class="st12" d="M2801.14,540.82c4.13,1.76,6.83,5.8,6.83,10.29v22.04c-18,26-58,0.45-58,0.45v-19.52
			c0-5.51,3.07-10.6,8.02-13.02C2766.67,536.79,2781.88,532.62,2801.14,540.82z"/>
		<path class="st24" d="M2257.04,230.65v29.63c0,0,16.81,12.13,48.87,0v-29.63C2305.91,230.65,2275.97,214.15,2257.04,230.65z"/>
		<polyline class="st24" points="2285.07,230.65 2301.97,224.15 2309.97,216.15 2429.53,203.15 2436.97,208.15 2325.97,234.15 
			2308.97,228.15 2297.97,237.15 		"/>
		<polyline class="st24" points="2265.97,228.15 2245.14,230.65 2227.97,223.15 2105.03,239.15 2113.03,246.49 2242.97,242.15 
			2248.97,236.15 2264.97,236.15 		"/>
		<path class="st24" d="M2052.97,366.15v28.66c0,0,18.02,24.66,52.51,0v-28.66C2105.48,366.15,2082.97,352.15,2052.97,366.15z"/>
		<polyline class="st24" points="2091.03,361.66 2121.97,353.15 2283.82,347.71 2281.34,353.69 2118.97,366.15 2099.56,366.15 		"/>
		<polyline class="st24" points="2064.76,366.15 2038.97,366.15 1891.53,377.15 1887.97,383.15 2015.97,383.15 2064.76,371.17 		"/>
		<path class="st24" d="M2262.71,559.65c0,0,24.66,20.64,59.46-4.43v-24.89c0-2.47-1.49-4.7-3.77-5.62
			c-8.62-3.48-30.42-10.62-48.52-2.55c-4.35,1.94-7.17,6.25-7.17,11.01V559.65z"/>
		<polygon class="st24" points="2299.28,539.11 2322.17,559.65 2471.69,587.65 2483,579.4 2337.42,539.11 		"/>
		<polyline class="st24" points="2275.97,534.15 2125.97,501.15 2112.97,507.15 2271.07,550.14 		"/>
		<path class="st0" d="M2412.54,477.06l203.85,0.37c18.63,0.03,33.13-16.22,30.92-34.72c-4.92-41.03-18.79-107.99-57.76-142.26
			c-43.75-38.47-112.1-38.99-153.53,3.66c-25.51,26.26-44.77,71.1-54.17,137.41C2379.2,460.25,2393.63,477.03,2412.54,477.06z"/>
		<g id="logo_00000093152667206197408130000002931556295542232704_">
			<polygon class="st25" points="2573.98,419.96 2510.38,449.99 2452.8,413.46 2452.81,344.9 2514.41,312.87 2575.99,349.4 			"/>
			<path class="st25" d="M2575.99,349.4c0,0-26.59,71.58-63.6,32.03c0,0-54.82,3.43-2.01,68.56"/>
			<path class="st25" d="M2512.4,381.43c0,0,25.26-48.51-59.58-36.53"/>
		</g>
		<path class="st12" d="M2782.01,543.05c0,0,24.99,1.95,34.99-14.05l128.47-34.6L2942,506l-118.9,47.82l-35.45-3.68"/>
		<path class="st12" d="M2757.84,553.82L2726,567h-23l-120,45l7,7l139-33c0,0,2-25,32.86-25.53"/>
	</g>
	<line class="st26" x1="2520.61" y1="1786.74" x2="2520.5" y2="1723.17"/>
	<path class="st27" d="M2505.4,1806c14.9,0.5,13.06-17,13.06-17s2.04,17.5,12.61,17.01"/>
	<g>
		<rect x="2417" y="1861.58" class="st28" width="207" height="234.67"/>
		<path class="st28" d="M2579.23,1901.79c-0.19-128.64-77.85-154.86-100.47-87.14c-16.87,50.5-17.58,87.14-17.58,87.14h22.27
			c0,0-2.71-40.21,10.14-76.27c0,0,21.74-59.78,54.84,0c8.43,15.23,10.37,52.37,14.53,76.27H2579.23z"/>
		<g id="logo_00000087386353365317579880000003245145295241312948_">
			<polygon class="st25" points="2570.33,2013.06 2515.88,2038.77 2466.57,2007.49 2466.58,1948.79 2519.33,1921.36 
				2572.06,1952.64 			"/>
			<path class="st25" d="M2572.06,1952.64c0,0-22.77,61.29-54.46,27.42c0,0-46.94,2.94-1.73,58.71"/>
			<path class="st25" d="M2517.6,1980.07c0,0,21.63-41.54-51.02-31.28"/>
		</g>
	</g>
	<path class="st27" d="M2525.5,1806.5c0,0,21,10,24.58-17.5"/>
	<path class="st27" d="M2514.5,1806.5c0,0-22,11-24.29-17.5"/>
</g>
<g id="Layer_2">
</g>
</svg>
